<svg id="Слой_1" data-name="Слой 1" xmlns="http://www.w3.org/2000/svg" viewBox="0 0 60.14 95.63"><defs><style>.cls-1{fill:#fc6;}.cls-2{fill:#2b3e51;}.cls-3{fill:#979797;}.cls-4{fill:#676767;}</style></defs><title>ico_02_</title><path class="cls-1" d="M49,65.31V.32h-.47C32.21.51,19,14.17,19,31A30.9,30.9,0,0,0,32.52,56.68c2.31,1.56,3.39,8.63,4.31,8.63H49Z" transform="translate(-19.04 -0.31)"/><path class="cls-2" d="M49,65.31V.32h.47C65.91.51,79.18,14.17,79.18,31A30.84,30.84,0,0,1,65.6,56.68c-2.33,1.56-3.42,8.63-4.34,8.63H49Z" transform="translate(-19.04 -0.31)"/><path class="cls-3" d="M49.11,87H40.58a1,1,0,0,0-1.09,1.17,9.67,9.67,0,0,0,9.62,7.74Z" transform="translate(-19.04 -0.31)"/><path class="cls-3" d="M49.11,67.53H39a2.09,2.09,0,0,0-2.06,2.11V71A2.09,2.09,0,0,0,39,73.07H49.11Z" transform="translate(-19.04 -0.31)"/><path class="cls-3" d="M49.11,74H39a2.09,2.09,0,0,0-2.06,2.11v1.32A2.09,2.09,0,0,0,39,79.57H49.11Z" transform="translate(-19.04 -0.31)"/><path class="cls-3" d="M49.11,80.53H39a2.09,2.09,0,0,0-2.06,2.11V84A2.09,2.09,0,0,0,39,86.07H49.11Z" transform="translate(-19.04 -0.31)"/><path class="cls-4" d="M49.11,67.53H59.27a2.09,2.09,0,0,1,2.06,2.11V71a2.09,2.09,0,0,1-2.06,2.11H49.11Z" transform="translate(-19.04 -0.31)"/><path class="cls-4" d="M49.11,74H59.27a2.09,2.09,0,0,1,2.06,2.11v1.32a2.09,2.09,0,0,1-2.06,2.11H49.11Z" transform="translate(-19.04 -0.31)"/><path class="cls-4" d="M49.11,80.53H59.27a2.09,2.09,0,0,1,2.06,2.11V84a2.09,2.09,0,0,1-2.06,2.11H49.11Z" transform="translate(-19.04 -0.31)"/><path class="cls-4" d="M49.11,87h8.53a1,1,0,0,1,1.09,1.17c-.7,4.33-4.73,7.66-9.62,7.74Z" transform="translate(-19.04 -0.31)"/></svg>