<svg xmlns="http://www.w3.org/2000/svg" viewBox="0 0 31.95 31.95"><defs><style>.cls-1{fill:#2b3e51;}.cls-2{fill:#979797;}.cls-3{fill:#676767;}.cls-4{fill:#cbcbca;}</style></defs><title>ic_0</title><g id="Слой_2" data-name="Слой 2"><g id="Слой_1-2" data-name="Слой 1"><circle class="cls-1" cx="15.97" cy="15.97" r="15.97"/><path class="cls-2" d="M16,22.35V9.44h-.09A6,6,0,0,0,10,15.54a6.13,6.13,0,0,0,2.69,5.1c.46.31.67,1.71.86,1.71H16Z"/><path class="cls-3" d="M16,22.35V9.44h.1A6,6,0,0,1,22,15.54a6.13,6.13,0,0,1-2.69,5.1c-.46.31-.68,1.71-.86,1.71H16Z"/><path class="cls-2" d="M16,26.67H14.28a.21.21,0,0,0-.22.23A1.92,1.92,0,0,0,16,28.44Z"/><path class="cls-4" d="M16,22.8H14a.4.4,0,0,0-.4.41v.27a.41.41,0,0,0,.4.42h2Z"/><path class="cls-4" d="M16,24.09H14a.41.41,0,0,0-.4.42v.26a.41.41,0,0,0,.4.42h2Z"/><path class="cls-4" d="M16,25.38H14a.41.41,0,0,0-.4.42v.26a.41.41,0,0,0,.4.42h2Z"/><path class="cls-2" d="M16,22.8h2a.41.41,0,0,1,.41.41v.27a.41.41,0,0,1-.41.42H16Z"/><path class="cls-2" d="M16,24.09h2a.41.41,0,0,1,.41.42v.26a.41.41,0,0,1-.41.42H16Z"/><path class="cls-2" d="M16,25.38h2a.41.41,0,0,1,.41.42v.26a.41.41,0,0,1-.41.42H16Z"/><path class="cls-3" d="M16,26.67h1.7a.2.2,0,0,1,.21.23A1.91,1.91,0,0,1,16,28.44Z"/></g></g></svg>